<?xml version="1.0" standalone="no"?>
<!DOCTYPE svg PUBLIC "-//W3C//DTD SVG 20010904//EN"
 "http://www.w3.org/TR/2001/REC-SVG-20010904/DTD/svg10.dtd">
<svg version="1.0" xmlns="http://www.w3.org/2000/svg"
 width="773.000000pt" height="773.000000pt" viewBox="0 0 773.000000 773.000000"
 preserveAspectRatio="xMidYMid meet">
<metadata>
Created by potrace 1.14, written by Peter Selinger 2001-2017
</metadata>
<g transform="translate(0.000000,773.000000) scale(0.100000,-0.100000)"
fill="#000000" stroke="none">
<path d="M3729 6384 c-1 -21 -2 -52 -4 -69 -1 -16 -5 -77 -9 -135 -4 -58 -11
-109 -15 -113 -5 -5 -28 -3 -52 3 -24 7 -52 14 -62 16 -10 2 -26 5 -35 8 -18
5 -75 15 -132 22 -47 6 -368 6 -400 0 -14 -3 -52 -8 -85 -11 -110 -11 -259
-42 -310 -64 -11 -5 -36 -15 -55 -22 -19 -7 -65 -27 -102 -46 -37 -18 -70 -29
-73 -23 -5 8 -142 123 -206 173 -57 45 -196 135 -219 142 -14 4 31 -35 100
-86 140 -107 152 -116 223 -179 27 -25 58 -52 69 -61 18 -16 17 -17 -7 -33
-25 -16 -28 -15 -159 54 -73 38 -137 70 -142 70 -5 0 0 -6 11 -12 23 -13 228
-139 234 -145 2 -1 -22 -31 -55 -66 -186 -197 -296 -387 -318 -546 -3 -24 -7
-45 -8 -45 -2 -1 -12 -7 -23 -14 -36 -22 -69 -33 -139 -46 -79 -15 -96 -31
-96 -87 0 -41 23 -80 94 -154 75 -80 75 -80 9 -115 -116 -60 -168 -90 -157
-90 10 0 150 64 196 90 10 6 22 10 28 10 23 0 63 -115 74 -211 4 -33 -1 -41
-56 -95 -71 -70 -158 -171 -158 -185 0 -19 16 -8 40 27 32 49 170 188 177 180
3 -3 7 -36 10 -73 2 -37 5 -85 6 -105 3 -28 -3 -44 -22 -66 -99 -113 -123
-143 -118 -149 4 -3 36 24 72 61 37 36 69 66 71 66 9 0 -5 -327 -16 -378 -7
-29 -9 -60 -6 -68 3 -8 -6 -61 -20 -117 -14 -56 -27 -109 -29 -117 -1 -8 -24
-103 -50 -210 -26 -107 -48 -202 -50 -210 -2 -8 -24 -100 -49 -203 -25 -104
-48 -199 -51 -210 -23 -104 -47 -216 -49 -232 -2 -11 -6 -33 -9 -50 -7 -29
-10 -55 -23 -155 -3 -25 -9 -71 -13 -103 -10 -71 -6 -171 9 -241 6 -29 13 -63
15 -77 3 -13 7 -35 10 -49 4 -14 8 -35 11 -47 2 -12 9 -34 14 -48 9 -24 8 -25
-18 -19 -43 11 -231 92 -292 126 -70 39 -198 129 -204 144 -4 11 17 36 142
170 99 105 102 110 61 85 -18 -12 -46 -26 -62 -32 -15 -6 -27 -15 -27 -20 0
-5 -5 -9 -11 -9 -15 0 -125 -76 -154 -108 -52 -55 -52 -57 27 -111 40 -28 78
-55 85 -61 7 -5 15 -10 19 -10 3 0 25 -13 48 -28 132 -89 496 -241 662 -277
10 -2 64 -13 119 -25 132 -29 116 -26 350 -55 108 -13 584 -14 665 -1 19 3 60
7 90 10 70 7 148 16 180 21 14 2 45 7 70 10 25 3 52 8 60 10 8 2 31 7 50 10
19 3 49 8 65 11 17 3 57 12 90 21 94 25 654 23 788 -3 95 -18 680 -26 862 -11
157 13 279 27 360 43 11 2 34 7 50 9 109 19 379 98 404 119 8 6 15 10 15 8 1
-2 14 1 29 7 16 6 30 11 33 11 11 0 222 109 254 131 137 94 198 156 246 249
29 57 25 161 -11 233 -15 31 -31 57 -35 57 -4 0 -5 -24 -2 -52 2 -29 -1 -80
-7 -113 -34 -185 -170 -323 -431 -438 -160 -70 -147 -71 -202 20 -58 96 -91
182 -112 293 -9 47 -18 95 -21 107 -3 13 -7 33 -10 45 -35 158 -191 490 -329
698 -45 69 -201 273 -236 311 -8 9 -31 35 -50 59 -19 24 -72 89 -118 144 -175
211 -191 232 -277 367 -98 153 -246 464 -280 589 -2 8 -7 25 -11 38 -3 12 -3
22 1 22 13 0 96 -91 147 -162 52 -72 72 -84 42 -26 -30 59 -76 120 -143 191
-62 65 -67 73 -82 145 -9 43 -15 79 -13 81 2 2 30 -12 63 -32 32 -21 62 -37
66 -37 15 0 -22 34 -80 74 -33 22 -61 46 -62 51 0 6 -4 26 -7 46 -15 96 -17
149 -6 149 10 0 151 -56 265 -105 40 -17 40 -17 20 3 -30 29 -99 65 -200 102
-49 18 -93 36 -97 39 -4 3 -9 48 -13 99 l-6 92 42 93 c33 70 43 104 43 142 0
63 -26 113 -67 130 -32 12 -128 13 -184 1 -27 -6 -32 -2 -69 51 -54 79 -176
200 -257 253 l-67 44 27 17 c14 9 43 25 64 35 22 9 39 21 39 25 0 14 -53 -1
-115 -31 -50 -24 -62 -27 -75 -16 -8 7 -28 18 -45 23 -28 9 -30 13 -28 54 6
170 0 325 -13 338 -2 2 -5 -13 -5 -35z"/>
<path d="M5775 2892 c-1 -1 -33 -3 -71 -3 -97 -2 -52 -15 76 -23 226 -14 482
-52 685 -102 336 -83 527 -217 539 -377 2 -23 -3 -66 -10 -97 l-12 -55 33 40
c56 66 80 123 79 185 -2 120 -103 206 -338 289 -81 29 -257 77 -316 87 -24 4
-40 7 -100 19 -14 3 -41 8 -60 11 -19 3 -45 7 -58 9 -73 12 -438 26 -447 17z"/>
<path d="M1539 2886 c-2 -2 -47 -6 -99 -10 -52 -3 -104 -8 -115 -10 -11 -2
-41 -7 -67 -10 -123 -17 -354 -106 -428 -166 -14 -11 -62 -48 -108 -82 -45
-33 -81 -63 -78 -65 3 -4 422 148 756 274 36 14 79 29 95 34 37 11 61 26 54
33 -3 4 -8 4 -10 2z"/>
<path d="M5907 1683 c-3 -5 -1 -17 4 -28 7 -17 8 -17 8 8 1 27 -4 34 -12 20z"/>
<path d="M1165 1640 c8 -12 160 -122 237 -170 116 -73 361 -188 498 -234 134
-44 324 -91 410 -101 25 -2 88 -11 140 -19 109 -16 601 -14 660 2 32 9 28 10
-40 12 -41 1 -86 3 -100 5 -14 1 -66 5 -116 9 -49 4 -101 8 -115 11 -13 2 -49
6 -79 9 -30 4 -66 8 -80 10 -14 3 -59 10 -100 16 -41 7 -111 20 -155 30 -45
11 -93 21 -107 24 -83 15 -377 105 -522 160 -131 50 -291 120 -414 182 -67 35
-120 59 -117 54z"/>
</g>
</svg>
